<?xml version="1.0" encoding="utf-8"?>
<!-- Generator: Adobe Illustrator 25.4.1, SVG Export Plug-In . SVG Version: 6.00 Build 0)  -->
<svg version="1.1" id="Layer_1" xmlns="http://www.w3.org/2000/svg" xmlns:xlink="http://www.w3.org/1999/xlink" x="0px" y="0px"
	 viewBox="0 0 80 80" style="enable-background:new 0 0 80 80;" xml:space="preserve">
<style type="text/css">
	.st0{fill:#1CAC1D;}
</style>
<g id="XMLID_31034_">
	<path id="XMLID_31035_" class="st0" d="M34.92,43.94v14.82c-6.35,0.13-9.58,1.2-9.58,3.18c0,2.12,3.69,3.2,10.98,3.2
		c7.28,0,10.98-1.08,10.98-3.2c0-1.98-3.23-3.05-9.6-3.18V44.59l11.35-11.35c1.25,0.6,2.65,0.94,4.13,0.94
		c5.32,0,9.66-4.33,9.66-9.66c0-5.32-4.33-9.66-9.66-9.66c-5.22,0-9.48,4.17-9.64,9.35H18.55c-0.56,0-1.07,0.34-1.28,0.86
		c-0.21,0.52-0.1,1.12,0.3,1.51L34.92,43.94z M53.18,17.64c3.79,0,6.88,3.08,6.88,6.88c0,3.79-3.09,6.88-6.88,6.88
		c-0.69,0-1.36-0.11-1.99-0.3l4.51-4.51c0.4-0.4,0.52-1,0.3-1.51c-0.22-0.52-0.72-0.86-1.28-0.86h-8.4
		C46.48,20.57,49.49,17.64,53.18,17.64z M51.36,27L36.63,41.72L21.91,27H51.36z M36.32,62.36c-2.54,0-4.57-0.19-6.01-0.42
		c1.44-0.23,3.47-0.42,6.01-0.42c2.54,0,4.57,0.19,6.01,0.42C40.89,62.17,38.87,62.36,36.32,62.36z"/>
</g>
</svg>
