<?xml version="1.0" encoding="utf-8"?>
<!-- Generator: Adobe Illustrator 25.4.1, SVG Export Plug-In . SVG Version: 6.00 Build 0)  -->
<svg version="1.1" id="Layer_1" xmlns="http://www.w3.org/2000/svg" xmlns:xlink="http://www.w3.org/1999/xlink" x="0px" y="0px"
	 viewBox="0 0 80 80" style="enable-background:new 0 0 80 80;" xml:space="preserve">
<style type="text/css">
	.st0{fill:#1CAC1D;}
</style>
<g id="XMLID_29927_">
	<path id="XMLID_29934_" class="st0" d="M40.52,30.08c-1.07,0-2.18-0.33-3.05-0.91l-0.59-0.39l-0.94,2.62l0.34,0.24
		c0.81,0.58,2.08,0.99,3.34,1.1v2.38h2.57V32.6c2.22-0.55,3.68-2.27,3.68-4.41c0-2.8-2.11-4.03-3.95-4.78
		c-2.18-0.9-2.55-1.39-2.55-2.15c0-0.7,0.5-1.45,1.92-1.45c1.4,0,2.29,0.5,2.66,0.72l0.56,0.32l0.98-2.58l-0.4-0.23
		c-0.81-0.48-1.72-0.76-2.76-0.86v-2.3h-2.55v2.46c-2.15,0.52-3.52,2.13-3.52,4.2c0,2.55,2.02,3.69,4.19,4.55
		c1.63,0.66,2.29,1.32,2.29,2.26C42.74,29.39,41.85,30.08,40.52,30.08z M40.86,25.06c-2.52-0.99-3.5-1.97-3.5-3.52
		c0-1.67,1.17-2.9,3.06-3.21l0.46-0.08v-2.27h0.34v2.24l0.53,0.02c0.89,0.03,1.67,0.2,2.36,0.53l-0.19,0.5
		c-0.57-0.26-1.46-0.57-2.64-0.57c-2.09,0-3.02,1.28-3.02,2.56c0,1.7,1.4,2.41,3.23,3.17c2.32,0.95,3.27,2.04,3.27,3.76
		c0,1.75-1.26,3.1-3.22,3.42l-0.46,0.08v2.34h-0.37v-2.35l-0.54-0.01c-1.03-0.02-2.14-0.29-2.91-0.71l0.19-0.52
		c0.93,0.48,2.01,0.74,3.06,0.74c1.93,0,3.33-1.19,3.33-2.84C43.85,26.51,42.26,25.63,40.86,25.06z"/>
	<path id="XMLID_29928_" class="st0" d="M52.91,31.44c1.14-2,1.8-4.31,1.8-6.78c0-7.57-6.16-13.73-13.73-13.73
		c-7.57,0-13.73,6.16-13.73,13.73c0,2.46,0.66,4.78,1.8,6.78H12.53L8.31,42.9l1.98,26.16h59.67l1.73-26.22l-5.35-11.4H52.91z
		 M28.83,24.66c0-6.7,5.45-12.15,12.15-12.15c2.67,0,5.14,0.87,7.15,2.33c0.15,0.11,0.3,0.23,0.45,0.35
		c1.14,0.92,2.12,2.04,2.87,3.31c1.07,1.81,1.68,3.91,1.68,6.16c0,0.42-0.02,0.83-0.06,1.24c-0.12,1.22-0.43,2.4-0.89,3.48
		c-0.92,2.18-2.47,4.04-4.41,5.35c-1.94,1.31-4.28,2.08-6.79,2.08C34.28,36.81,28.83,31.36,28.83,24.66z M43.92,38.07h16.42v2.82
		H19.66v-2.82h18.39c0.06,0.01,0.11,0.02,0.17,0.03c0.87,0.18,1.78,0.28,2.71,0.29c0.02,0,0.04,0,0.06,0
		C41.99,38.39,42.98,38.28,43.92,38.07z M67.75,66.7H12.49L10.9,45.73h58.23L67.75,66.7z M69.26,43.75l-0.02,0.31H10.77l-0.02-0.31
		l-0.04-0.52l3.47-9.43h16.58c0.2,0.22,0.41,0.42,0.62,0.63c1.04,1.02,2.22,1.89,3.54,2.54H18.55v5.02h42.89v-5.02H47.06
		c1.58-0.78,2.99-1.86,4.15-3.17h13.62l4.45,9.49L69.26,43.75z"/>
</g>
</svg>
