<?xml version="1.0" encoding="utf-8"?>
<!-- Generator: Adobe Illustrator 25.4.1, SVG Export Plug-In . SVG Version: 6.00 Build 0)  -->
<svg version="1.1" id="Layer_1" xmlns="http://www.w3.org/2000/svg" xmlns:xlink="http://www.w3.org/1999/xlink" x="0px" y="0px"
	 viewBox="0 0 80 80" style="enable-background:new 0 0 80 80;" xml:space="preserve">
<style type="text/css">
	.st0{fill:#1CAC1D;}
</style>
<g id="XMLID_30391_">
	<path id="XMLID_30398_" class="st0" d="M61.01,37.16c0.09-0.11,0.16-0.23,0.2-0.37l6.42-19.31c0.11-0.25,0.19-0.51,0.25-0.78
		c0.01-0.02,0.01-0.04,0.02-0.07c0.27-1.35-0.15-2.73-1.12-3.7c-1-1-2.41-1.41-3.79-1.09c-0.04,0.01-0.09,0.02-0.13,0.03
		c-0.18,0.05-0.35,0.11-0.51,0.17l-18.72,6.19c-0.96,0.22-1.72,0.62-2.32,1.22L27.7,33.09l-11.1-1.77c-0.08-0.01-0.16-0.01-0.24,0
		c-1.18-0.18-2.37,0.21-3.23,1.07c-1.46,1.46-1.48,3.83-0.06,5.32c0.02,0.03,0.05,0.07,0.08,0.1l4.92,4.93l-1.35,1.35
		c-1.88,1.88-1.88,4.95,0.01,6.84l1.6,1.6l-0.16,0.32c-0.23,0.46-0.15,1.01,0.22,1.37l7.03,7.04c0.36,0.36,0.91,0.45,1.37,0.22
		l0.32-0.16l1.66,1.67c0.91,0.91,2.12,1.42,3.41,1.42h0c1.29,0,2.5-0.5,3.41-1.42l1.07-1.07l4.98,4.99
		c0.04,0.04,0.09,0.08,0.14,0.11c0.04,0.05,0.08,0.1,0.13,0.14c0.72,0.72,1.67,1.11,2.68,1.11h0c1.01,0,1.97-0.4,2.68-1.12
		c1-1,1.35-2.46,0.94-3.8c0-0.05,0-0.09-0.01-0.14l-1.76-11.1l13.72-13.76C60.5,38.01,60.78,37.62,61.01,37.16z M14.39,36.81
		c-0.03-0.04-0.06-0.08-0.09-0.12c-0.03-0.03-0.06-0.06-0.1-0.09c-0.82-0.87-0.81-2.25,0.05-3.11c0.54-0.54,1.31-0.76,2.05-0.59
		c0.1,0.02,0.21,0.03,0.31,0.01l9.72,1.55l-7.14,7.16L14.39,36.81z M46.59,63.15c-0.03,0.15-0.02,0.32,0.04,0.47
		c0.34,0.84,0.15,1.79-0.48,2.42c-0.42,0.42-0.98,0.65-1.57,0.65h0c-0.59,0-1.15-0.23-1.57-0.65c-0.03-0.03-0.06-0.07-0.08-0.11
		l-0.09-0.11c-0.08-0.1-0.18-0.18-0.29-0.23l-4.69-4.7l7.24-7.25L46.59,63.15z M58.99,35.91c-0.14,0.31-0.3,0.56-0.5,0.76
		L33.91,61.31c-0.47,0.47-1.08,0.72-1.74,0.72l0,0h0c-0.25,0-0.49-0.04-0.72-0.11S31,61.76,30.8,61.62
		c-0.13-0.09-0.26-0.19-0.38-0.31l-2.27-2.27c-0.23-0.23-0.53-0.35-0.83-0.35c-0.18,0-0.37,0.04-0.54,0.13l-0.32,0.17l-5.81-5.83
		l0.16-0.32c0.23-0.46,0.15-1.01-0.22-1.37l-2.21-2.21c-0.96-0.97-0.97-2.53-0.01-3.5l24.58-24.64c0.29-0.29,0.68-0.48,1.22-0.6
		c0.04-0.01,0.08-0.02,0.12-0.03l18.82-6.22c0.03-0.01,0.06-0.02,0.09-0.03c0.07-0.03,0.14-0.05,0.21-0.08
		c0.02,0,0.04-0.01,0.06-0.01c0.59-0.14,1.2,0.03,1.63,0.45c0.4,0.4,0.58,0.97,0.48,1.53c0,0.01-0.01,0.03-0.01,0.04
		c-0.03,0.14-0.07,0.26-0.12,0.38c-0.02,0.04-0.03,0.08-0.05,0.12l-6.35,19.09C59.04,35.81,59.01,35.86,58.99,35.91z"/>
	<path id="XMLID_30395_" class="st0" d="M36.86,40.32c-0.81-0.81-1.89-1.26-3.03-1.26h0c-1.14,0-2.22,0.45-3.03,1.26l-5.25,5.26
		c-1.67,1.67-1.67,4.4,0,6.08l2.48,2.48c0.81,0.81,1.89,1.26,3.03,1.26c0,0,0,0,0,0c1.14,0,2.22-0.45,3.03-1.26l5.25-5.26
		c0.81-0.81,1.26-1.89,1.26-3.04c0-1.15-0.44-2.23-1.26-3.04L36.86,40.32z M37.67,47.21l-5.25,5.26l0,0
		c-0.36,0.36-0.85,0.56-1.36,0.57h0c-0.52,0-1-0.2-1.36-0.57l-2.48-2.48c-0.75-0.76-0.75-1.98,0-2.74l5.25-5.26
		c0.36-0.36,0.85-0.56,1.36-0.56h0c0.52,0,1,0.2,1.36,0.56l2.48,2.48c0.36,0.37,0.56,0.85,0.56,1.37
		C38.23,46.36,38.03,46.84,37.67,47.21z"/>
	<path id="XMLID_30392_" class="st0" d="M49.8,27.04c-0.97-0.52-2.06-0.8-3.19-0.8l0,0l0,0c-1.81,0-3.51,0.71-4.78,1.99
		c-1.28,1.28-1.99,2.99-1.99,4.8c0,1.81,0.71,3.52,1.98,4.8c1.28,1.28,2.98,1.99,4.78,1.99h0c1.81,0,3.51-0.71,4.79-1.99
		c1.28-1.28,1.98-2.99,1.98-4.8c0-1.81-0.7-3.52-1.98-4.8C50.92,27.75,50.38,27.35,49.8,27.04z M49.73,36.15
		c-0.83,0.84-1.94,1.3-3.12,1.3h0c-1.18,0-2.28-0.46-3.12-1.29c-0.83-0.84-1.29-1.95-1.29-3.13c0-1.18,0.46-2.29,1.3-3.13
		c0.83-0.84,1.94-1.3,3.12-1.3l0,0c1.18,0,2.29,0.46,3.12,1.3c0.83,0.83,1.29,1.94,1.29,3.13C51.02,34.21,50.56,35.32,49.73,36.15z"
		/>
</g>
</svg>
